<?xml version="1.0" standalone="no"?>
<!DOCTYPE svg PUBLIC "-//W3C//DTD SVG 20010904//EN"
 "http://www.w3.org/TR/2001/REC-SVG-20010904/DTD/svg10.dtd">
<svg version="1.0" xmlns="http://www.w3.org/2000/svg"
 width="738.000000pt" height="738.000000pt" viewBox="0 0 738.000000 738.000000"
 preserveAspectRatio="xMidYMid meet">

<g transform="translate(0.000000,738.000000) scale(0.100000,-0.100000)"
fill="#000000" stroke="none">
<path d="M0 3690 l0 -3690 3690 0 3690 0 0 3690 0 3690 -3690 0 -3690 0 0
-3690z m3865 418 c35 -16 50 -59 33 -95 -11 -24 -20 -29 -63 -33 l-50 -5 -3
-47 c-2 -27 1 -48 5 -49 67 -6 90 -12 106 -30 21 -26 21 -38 1 -67 -12 -18
-25 -22 -65 -22 l-49 0 0 -225 c0 -143 -4 -233 -11 -248 -21 -47 -98 -62 -140
-28 -24 19 -24 22 -29 258 l-5 238 -43 6 c-45 6 -62 20 -62 54 0 34 17 48 62
54 l43 6 5 70 c3 39 10 79 17 90 44 78 162 113 248 73z m-1677 -242 c193 -98
243 -349 100 -510 -23 -27 -67 -61 -102 -78 -53 -28 -72 -32 -141 -32 -67 -1
-89 3 -140 27 -78 36 -127 85 -162 161 -23 51 -28 75 -28 141 0 67 4 89 28
137 32 66 87 118 123 118 34 0 74 -42 74 -78 0 -16 -8 -40 -19 -53 -56 -72
-65 -138 -28 -209 40 -80 144 -112 225 -71 51 26 73 53 87 108 26 104 -38 200
-144 217 -75 12 -103 75 -59 131 20 26 25 27 78 22 32 -3 79 -16 108 -31z
m-684 10 c86 -26 143 -78 153 -141 7 -45 -30 -85 -81 -85 -29 0 -41 7 -67 40
-55 68 -138 77 -197 22 -35 -33 -52 -85 -52 -160 0 -62 17 -108 54 -141 21
-20 37 -25 82 -25 54 -1 56 0 104 52 40 44 54 52 83 52 27 0 41 -7 57 -27 44
-56 -3 -147 -99 -192 -48 -22 -69 -26 -151 -26 -78 0 -104 4 -146 23 -102 46
-155 132 -162 267 -4 87 19 180 60 237 69 97 230 143 362 104z m1096 -6 c11
-11 22 -31 26 -45 l7 -26 26 24 c39 37 87 58 146 64 68 7 122 -11 162 -55 l33
-36 27 27 c91 86 255 90 334 7 51 -53 59 -97 59 -325 0 -247 -7 -265 -99 -265
-26 0 -44 7 -57 21 -17 19 -20 43 -24 226 l-5 205 -28 24 c-46 39 -120 28
-154 -23 -15 -23 -19 -56 -23 -220 -6 -218 -7 -222 -82 -230 -33 -4 -49 -1
-68 15 -25 20 -25 22 -30 225 -5 200 -6 206 -29 231 -28 30 -76 34 -121 11
-53 -27 -60 -56 -60 -245 0 -217 -9 -240 -96 -240 -24 0 -43 8 -59 25 l-25 24
0 276 0 276 25 24 c31 31 86 34 115 5z m1648 4 c25 -17 282 -522 282 -553 0
-10 -9 -30 -21 -45 l-20 -26 -280 0 c-266 0 -280 1 -299 20 -34 34 -24 75 58
235 63 122 82 152 105 159 39 14 78 -3 93 -41 12 -29 10 -37 -31 -123 -25 -50
-45 -93 -45 -96 0 -2 54 -4 120 -4 l120 0 -101 202 c-106 214 -111 234 -67
271 25 21 57 22 86 1z m505 -4 c13 -11 28 -32 31 -46 l7 -27 27 25 c69 65 179
86 256 48 25 -12 53 -35 63 -50 l16 -29 44 38 c51 46 113 65 186 59 104 -9
165 -61 186 -159 12 -53 15 -366 5 -417 -10 -49 -38 -72 -87 -72 -87 1 -97 30
-97 277 l0 182 -26 20 c-62 49 -155 9 -174 -74 -5 -22 -10 -112 -10 -200 0
-88 -4 -165 -8 -171 -24 -37 -96 -44 -135 -14 l-25 20 -3 199 c-4 184 -6 202
-25 228 -38 51 -127 41 -164 -19 -18 -29 -20 -51 -20 -193 0 -183 -9 -231 -46
-245 -42 -16 -86 -12 -111 12 -23 21 -23 22 -23 298 0 265 1 278 21 304 25 32
75 35 112 6z m1268 9 c12 -6 75 -120 154 -280 131 -263 134 -271 122 -302 -16
-38 -54 -55 -94 -41 -23 7 -44 41 -124 199 l-97 189 -61 -122 -61 -122 80 0
c120 0 167 -35 140 -104 -15 -41 -38 -46 -214 -46 l-165 0 -20 26 c-12 15 -21
35 -21 45 0 24 246 518 273 547 22 24 56 28 88 11z"/>
</g>
</svg>
